<svg version="1.1" id="Layer_1" xmlns="http://www.w3.org/2000/svg" xmlns:xlink="http://www.w3.org/1999/xlink" x="0px" y="0px"
	 width="100%" viewBox="0 0 784 784" enable-background="new 0 0 784 784" xml:space="preserve">
<path fill="#000000" opacity="1.000000" stroke="none" 
	d="
M581.490051,159.777405 
	C587.718140,176.956985 585.175049,193.723175 580.445251,210.139908 
	C571.032593,242.810181 552.055725,269.663300 528.457581,293.660492 
	C504.890778,317.625793 477.677063,336.090790 446.832428,349.301331 
	C443.822693,350.590393 441.668274,352.337982 440.546021,355.771240 
	C428.541443,392.497284 419.130890,429.875641 412.566498,467.936890 
	C409.599762,485.138428 407.453125,502.508881 408.392242,520.036926 
	C408.952148,530.487244 409.879913,540.939819 414.614716,550.597900 
	C419.040070,559.624817 425.005280,561.690186 433.511230,556.472839 
	C450.575836,546.005676 464.775269,532.171326 478.186768,517.498901 
	C484.366638,510.737976 490.161072,503.625946 496.282349,496.809662 
	C499.582886,493.134430 503.190338,492.792450 506.403595,495.397705 
	C509.782074,498.137024 510.473633,502.379486 507.417358,506.049591 
	C487.767120,529.646301 467.654236,552.794678 441.217163,569.288757 
	C433.674927,573.994385 425.646332,577.692261 416.843842,579.231262 
	C398.171417,582.495911 382.974548,574.359863 375.023560,557.012207 
	C369.163422,544.226501 367.214386,530.553589 366.759979,516.711853 
	C365.631470,482.337433 371.844116,448.871948 380.139893,415.727844 
	C382.803528,405.085663 385.960815,394.567047 388.892365,383.991882 
	C389.415375,382.105194 389.938843,380.218628 390.476593,378.279816 
	C388.248169,377.440826 386.948944,378.795074 385.605835,379.519745 
	C377.836639,383.711517 370.184662,388.122955 362.376251,392.238495 
	C359.469788,393.770355 357.981049,395.824951 357.218140,399.019012 
	C350.225677,428.294067 342.967224,457.502411 334.523499,486.402161 
	C325.364380,517.750610 315.551392,548.854980 299.962830,577.762756 
	C294.976685,587.009155 289.768707,596.274414 283.137238,604.339111 
	C264.024017,627.583130 239.505219,639.509827 209.169113,634.034973 
	C186.109558,629.873413 166.797592,608.044800 170.163406,579.868347 
	C174.171280,546.316833 190.875275,518.662415 211.532104,493.176758 
	C236.506424,462.364471 267.565491,438.154694 299.411407,414.970215 
	C304.130096,411.534882 306.904846,407.686920 308.313202,401.935364 
	C320.958954,350.290894 332.092682,298.328735 341.735443,246.044601 
	C344.807129,229.389664 347.805267,212.720779 350.742859,196.041687 
	C351.996155,188.925705 355.140778,183.448242 362.618225,181.595230 
	C369.113190,179.985733 374.071014,182.853806 378.803467,187.050156 
	C390.169556,197.128632 396.270966,209.284470 393.841156,224.676743 
	C392.261566,234.683273 390.004547,244.583344 388.029510,254.526825 
	C380.294586,293.469177 372.505280,332.400177 363.611481,371.099976 
	C363.434479,371.870087 363.492401,372.694153 363.448029,373.379700 
	C364.925262,374.364410 365.876984,373.450928 366.850616,372.942932 
	C375.564636,368.396149 384.219482,363.732971 392.993347,359.305298 
	C396.476990,357.547302 398.561646,355.136902 399.835999,351.349182 
	C411.794830,315.804108 425.129852,280.788330 442.350342,247.413788 
	C456.433533,220.119614 471.915985,193.642426 492.943481,170.944321 
	C503.958984,159.053650 515.753906,147.936920 531.007263,141.493469 
	C545.214539,135.491928 558.872864,135.782471 571.425171,145.847687 
	C575.960449,149.484329 579.102661,154.115021 581.490051,159.777405 
M547.566101,143.102859 
	C540.731323,143.109589 534.459473,145.155289 528.527954,148.396729 
	C517.133179,154.623703 507.565765,163.148712 498.772430,172.545135 
	C478.784912,193.903488 463.779633,218.702072 450.146576,244.349564 
	C431.250641,279.897949 416.913818,317.372040 404.247040,355.509125 
	C403.125031,358.887390 401.491486,361.276794 398.139709,362.817383 
	C393.456482,364.970001 388.990479,367.601929 384.470673,370.099640 
	C382.993469,370.915985 380.912689,371.563202 382.322815,374.347961 
	C387.824341,372.941711 392.072418,368.743073 397.583374,367.551086 
	C398.778839,370.207214 398.235321,372.379883 397.504181,374.655151 
	C395.620667,380.516907 394.033081,386.476013 392.058136,392.305084 
	C391.120789,395.071655 391.417786,397.415436 392.678192,399.954468 
	C397.872253,410.417480 403.582977,420.573578 410.271027,430.159088 
	C411.045288,431.268738 411.435608,433.013000 413.589813,432.839264 
	C413.939270,431.760071 414.377045,430.689178 414.632965,429.576477 
	C420.338989,404.765503 426.990387,380.224121 434.698578,355.947968 
	C436.665009,349.754852 440.124756,346.305939 445.854950,343.758118 
	C474.415741,331.059113 500.309692,314.353790 522.454285,292.063782 
	C542.614197,271.771454 559.620178,249.303665 570.448914,222.637253 
	C577.345581,205.653641 581.688049,188.099609 578.613464,169.563599 
	C575.919067,153.319611 564.541382,143.474319 547.566101,143.102859 
M274.581757,521.200439 
	C284.047943,492.584656 292.690002,463.736267 300.010010,434.335236 
	C297.219421,433.943787 296.058044,435.294250 294.766388,436.255310 
	C282.339752,445.501343 270.083374,454.962769 258.656403,465.443329 
	C231.431290,490.413452 207.640976,517.993469 192.618408,552.258606 
	C187.633575,563.628540 183.784927,575.207275 184.305740,587.870667 
	C185.003510,604.836243 195.985474,613.711426 212.512741,611.033630 
	C228.690018,608.412598 239.547318,598.645813 247.386810,585.236206 
	C259.030914,565.318604 266.854156,543.688782 274.581757,521.200439 
M364.447815,248.929657 
	C363.985321,272.983154 363.994629,297.009521 368.509094,321.162018 
	C368.845642,320.385468 369.111420,319.977539 369.202026,319.533844 
	C374.047791,295.804810 379.004517,272.097351 383.653809,248.329773 
	C385.716919,237.783142 389.175873,227.424591 388.680511,216.471771 
	C388.178864,205.379425 382.490845,197.336838 373.890717,190.734222 
	C372.131622,193.277542 371.938446,195.830505 371.407928,198.226746 
	C367.776581,214.629562 365.774200,231.262680 364.447815,248.929657 
z"/>
<path fill="#000000" opacity="1.000000" stroke="none" 
	d="
M104.947647,512.978088 
	C102.748016,506.760071 99.883659,501.336853 96.111137,496.389496 
	C89.806999,488.122192 87.977798,478.616760 88.903221,468.532715 
	C89.738098,459.435211 90.472435,450.605774 88.173012,441.375153 
	C86.153297,433.267395 88.187614,424.465363 86.760017,416.020721 
	C85.875679,410.789581 85.080505,405.512329 84.758606,400.224518 
	C84.280785,392.375397 86.654251,384.757019 87.211731,376.964722 
	C87.529114,372.528259 87.795769,368.024200 89.161316,363.672882 
	C81.410728,374.597260 74.604439,386.028625 69.124878,398.239716 
	C68.413162,399.825775 68.788437,401.097015 69.435829,402.501007 
	C71.536964,407.057953 71.624947,411.728760 70.698570,416.641479 
	C69.623108,422.344818 69.176155,428.163483 68.277092,433.903992 
	C66.896324,442.720123 62.640289,449.907074 55.281933,454.997345 
	C47.746605,460.210083 40.034157,465.167480 32.375065,470.199829 
	C31.010105,471.096649 29.551182,472.334473 27.806690,471.273254 
	C25.780693,470.040894 26.406446,467.961304 26.874870,466.291718 
	C29.353310,457.458008 29.809387,448.182739 32.110767,439.417755 
	C36.120651,424.145721 43.227444,410.465790 58.251781,402.761902 
	C60.970253,401.367981 63.584698,399.693787 64.904541,396.907410 
	C71.547508,382.883270 80.689789,370.239777 87.429375,356.305237 
	C93.525116,343.701904 95.297775,329.704224 96.296936,316.109833 
	C97.268166,302.895538 97.867172,289.934418 103.820320,277.493591 
	C97.153404,279.207092 87.571663,289.263702 87.124695,295.130981 
	C86.605225,301.949982 83.860977,307.513336 79.352699,312.539825 
	C76.136932,316.125275 73.283806,320.064178 70.518425,324.019806 
	C63.640995,333.857361 53.919067,339.168030 42.555164,341.893555 
	C37.143242,343.191589 34.932423,341.111237 35.869637,335.594177 
	C36.455875,332.143188 37.426601,328.745239 39.593521,325.882080 
	C48.649124,313.916901 57.633831,301.891388 69.967918,292.931763 
	C72.289314,291.245514 74.632545,289.418152 77.414375,289.002899 
	C83.192993,288.140289 87.425903,284.950684 91.476776,281.099335 
	C95.821655,276.968414 100.344574,273.016907 104.907646,269.125305 
	C110.343628,264.489258 114.473152,258.997375 117.069740,252.300461 
	C119.801842,245.254028 124.359276,239.224243 128.308273,232.861420 
	C130.399704,229.491608 132.638245,226.208069 134.199692,222.108353 
	C131.228516,222.745773 129.210144,224.467987 127.085861,225.936310 
	C117.176842,232.785492 106.820297,238.825073 95.320572,242.572113 
	C84.728798,246.023331 78.344391,253.873840 72.988609,262.954163 
	C72.100502,264.459839 72.103500,266.128479 72.026535,267.796112 
	C71.738983,274.027222 68.939102,278.920532 64.045937,282.691864 
	C61.615837,284.564819 58.708168,285.477875 56.180202,283.775208 
	C53.556561,282.008087 54.471741,278.950195 55.369450,276.432343 
	C56.728321,272.621063 58.564480,268.862701 62.176983,266.828583 
	C67.684456,263.727448 70.855629,258.734833 74.328217,253.562775 
	C72.715408,252.848953 71.723518,253.988373 70.687767,254.436234 
	C66.561630,256.220490 62.626793,258.544189 58.380432,259.931458 
	C51.362892,262.224030 44.860138,264.778870 39.736443,270.679260 
	C36.649632,274.233978 31.949352,276.455292 26.759266,276.168610 
	C23.998144,276.016083 21.394318,275.186096 20.167175,272.420654 
	C18.930622,269.633972 20.126381,267.189941 21.911476,265.060486 
	C25.381023,260.921692 30.324465,258.664246 35.232059,259.464661 
	C45.477535,261.135651 54.284145,257.733978 63.053963,253.573822 
	C70.988983,249.809647 78.807175,245.799210 87.807045,241.337006 
	C82.186760,239.529449 77.843437,241.400925 73.587967,241.591751 
	C69.755745,241.763596 66.035561,241.886337 62.208252,241.419113 
	C54.452034,240.472229 46.679646,239.695816 38.820747,240.664673 
	C36.020813,241.009857 33.237022,239.906998 30.583433,238.886261 
	C27.795992,237.814056 26.273048,235.849640 26.469126,232.755493 
	C26.663521,229.687881 28.439734,227.721542 31.230705,227.015656 
	C37.703888,225.378479 43.709946,226.982513 48.205990,231.678635 
	C52.509472,236.173615 57.449142,237.875366 63.359898,237.939682 
	C68.695465,237.997726 74.009659,237.957245 79.307297,237.145233 
	C81.433685,236.819305 83.747162,236.392044 85.762878,236.883270 
	C97.656067,239.781631 107.139412,234.365372 116.516243,228.090179 
	C109.928116,229.165680 103.294594,229.844894 96.701416,229.204132 
	C90.343887,228.586288 84.264122,228.580475 78.355072,231.457245 
	C75.006927,233.087250 71.472282,231.783768 68.030502,231.302567 
	C65.220291,230.909668 63.320454,229.304031 62.972641,226.555313 
	C62.612602,223.709961 64.452858,221.815674 66.914803,220.811142 
	C72.022163,218.727249 77.254066,219.283508 81.939430,221.709976 
	C92.065727,226.954132 102.411545,225.664276 113.127251,224.376846 
	C126.704399,222.745636 136.600861,216.129959 144.492096,205.364441 
	C148.193649,200.314636 152.795670,195.924866 156.739746,190.882004 
	C145.397705,194.676041 134.454895,198.625214 123.996544,204.879303 
	C108.434013,214.185654 91.532791,222.051437 72.540833,214.164139 
	C63.899403,210.575363 58.166550,204.174622 56.581066,194.536194 
	C56.238148,192.451538 55.202187,190.468170 54.392132,188.476105 
	C53.273067,185.724167 54.675076,184.047119 57.035854,184.979599 
	C74.431755,191.850891 94.058632,186.995895 111.124275,195.414124 
	C112.448669,196.067429 113.982040,196.297302 115.418587,196.722961 
	C121.248589,198.450439 126.880173,198.203705 132.350250,195.290588 
	C134.988388,193.885651 137.670227,192.358963 140.521805,191.592926 
	C155.148972,187.663605 166.925156,179.221329 177.558823,168.838638 
	C185.957092,160.638596 195.559128,154.055923 205.645447,148.132507 
	C207.736145,146.904694 209.745712,145.538696 211.969345,144.123993 
	C210.649292,143.346268 209.942123,144.027939 209.271179,144.355408 
	C190.778015,153.381439 170.724228,154.751282 150.713852,156.258667 
	C146.334534,156.588562 142.111664,155.229416 138.011871,153.900604 
	C132.303864,152.050552 126.577774,150.375687 120.679848,149.228531 
	C117.732819,148.655350 114.951714,147.463455 112.743408,145.255890 
	C111.113647,143.626678 110.051537,141.741867 110.786270,139.422470 
	C111.609009,136.825287 113.932831,136.704208 116.132668,136.759888 
	C123.125694,136.936844 130.124207,137.062393 137.106598,137.456070 
	C148.120667,138.077026 159.168518,138.148071 169.869751,135.438995 
	C187.708481,130.923019 206.074127,130.514633 224.109680,127.649567 
	C237.279205,125.557510 250.284088,122.850487 262.139648,116.213394 
	C270.099457,111.757248 278.547699,108.282600 287.001526,104.612297 
	C275.696045,104.937805 264.526459,104.312279 253.332428,103.470741 
	C245.056076,102.848557 237.682358,100.397766 231.051041,95.662788 
	C224.805664,91.203377 218.631897,86.725098 211.429718,83.820816 
	C206.644592,81.891197 203.930695,77.933159 202.361740,73.110008 
	C201.236847,69.651901 202.011856,67.888496 206.021194,68.535278 
	C211.796112,69.466858 217.437347,70.930626 222.841919,73.129059 
	C236.895569,78.845703 251.517029,81.524063 266.642242,81.723457 
	C278.255219,81.876541 289.280914,85.155746 300.366180,88.111595 
	C310.564941,90.831055 320.963196,91.801697 331.492249,91.727112 
	C334.519531,91.705658 337.235413,90.967560 340.344971,89.184158 
	C329.465332,86.121971 319.326965,83.060768 309.074280,80.448334 
	C300.859894,78.355286 295.160217,73.647888 291.780670,65.948059 
	C289.608795,60.999825 286.525879,56.714272 282.459167,53.102329 
	C281.171387,51.958584 279.272095,50.520657 280.608459,48.503387 
	C281.857819,46.617397 283.969452,47.196651 285.572266,48.155315 
	C301.666748,57.781769 319.903503,62.720543 336.391479,71.509270 
	C353.106171,80.418846 371.143463,84.399971 389.978912,85.790810 
	C400.888519,86.596397 411.676910,88.928490 422.561951,90.217720 
	C431.590576,91.287086 440.680817,91.835793 449.670166,92.608826 
	C450.254486,90.637230 449.047058,90.040031 448.199677,89.364136 
	C441.288666,83.851570 434.195221,78.647232 426.169800,74.767197 
	C420.829529,72.185356 415.329468,71.610512 409.626526,72.417725 
	C406.519745,72.857468 403.777863,73.799782 401.550751,76.649521 
	C398.629089,80.388008 394.265839,81.779106 389.450623,80.793365 
	C387.291870,80.351440 385.134888,79.658348 384.869568,76.939156 
	C384.612610,74.305588 386.404053,73.110733 388.438263,72.094345 
	C391.819672,70.404854 395.569794,70.602020 399.152985,69.957863 
	C400.924927,69.639320 402.736481,69.541267 405.495605,69.236961 
	C400.280792,65.733681 395.029175,66.384201 390.218811,65.347672 
	C389.739136,65.244301 389.193848,65.418427 388.726013,65.291054 
	C381.448944,63.309803 374.598419,64.424164 367.485840,66.866119 
	C362.127960,68.705627 356.243927,67.873886 351.034973,64.937393 
	C348.591400,63.559841 346.606873,61.665909 346.947693,58.628120 
	C347.291107,55.567131 349.558380,54.351330 352.390747,53.596741 
	C357.062958,52.351982 361.935608,51.897636 366.112213,54.049282 
	C378.090546,60.220158 391.190765,61.442860 404.088531,63.751038 
	C408.311646,64.506805 412.414276,65.935905 417.217194,67.231064 
	C416.083313,64.730194 414.482941,63.415524 412.912659,62.100597 
	C405.092255,55.551994 396.641083,49.943985 387.699890,45.038105 
	C385.211548,43.672798 382.928345,43.317673 380.110718,44.127937 
	C373.820068,45.936932 368.247711,43.960312 363.483704,39.780994 
	C360.758667,37.390430 359.587585,34.155796 361.408997,30.782255 
	C363.198883,27.467100 366.428619,28.079767 369.412964,28.866447 
	C373.982391,30.070948 378.128632,32.031254 381.594269,35.403133 
	C385.658447,39.357315 390.419556,42.231316 396.635284,44.303219 
	C393.984253,39.228157 390.602570,36.253738 386.080933,34.589245 
	C382.044556,33.103367 378.595062,30.887081 376.434845,27.077354 
	C375.126709,24.770264 374.684082,22.264071 376.706055,20.129946 
	C378.694672,18.031052 381.020538,18.896664 383.160919,19.985107 
	C386.199005,21.530054 388.877594,23.702198 390.352325,26.737446 
	C401.024017,48.701324 419.299652,63.292088 438.609406,76.922020 
	C444.599854,81.150429 450.582825,85.411354 455.954407,90.421265 
	C458.244110,92.556816 460.859344,93.822891 463.818359,94.494064 
	C471.030762,96.129997 477.712189,98.985779 484.072784,102.754906 
	C490.971405,106.842834 498.454010,109.716164 505.881134,112.682655 
	C507.517212,113.336136 509.942566,113.686134 509.265686,116.143066 
	C508.668976,118.309074 506.408386,117.408440 504.904877,117.271828 
	C492.622528,116.155869 480.962006,112.918060 470.711456,105.867058 
	C463.094513,100.627609 454.834717,100.299911 446.290039,101.850769 
	C437.455963,103.454155 432.136200,110.003250 432.308502,119.081779 
	C432.396729,123.732094 431.694916,127.994057 429.258179,131.977325 
	C427.960114,134.099243 426.170349,135.437088 423.782104,135.984909 
	C421.797363,136.440170 420.176361,135.772278 418.910126,134.213593 
	C417.740997,132.774445 417.483704,131.171844 418.437439,129.569977 
	C419.626343,127.573021 420.589142,125.215813 422.299072,123.796776 
	C427.538971,119.448303 429.182648,113.430840 430.960541,106.736420 
	C423.492462,108.226402 417.696655,112.254059 414.257080,118.215836 
	C408.838470,127.607918 401.653870,136.186752 400.075226,147.622406 
	C399.428070,152.310684 396.032501,155.893494 391.179749,157.587997 
	C388.725494,158.444992 386.591217,158.267258 384.753479,156.371750 
	C382.845001,154.403275 382.176941,152.124924 383.330414,149.511292 
	C385.613403,144.338257 388.888092,139.796738 394.026550,137.397583 
	C398.248810,135.426178 401.053131,132.494705 403.048950,128.530563 
	C405.364594,123.931221 407.696106,119.343933 411.236328,114.318924 
	C397.042206,117.926346 384.961639,123.571648 374.790344,132.994980 
	C373.766205,133.943787 373.511353,135.218262 373.309845,136.592026 
	C372.074402,145.015137 365.749664,151.538559 357.490570,153.045731 
	C354.508087,153.590012 351.723389,153.175323 349.827637,150.629700 
	C347.755890,147.847763 348.430817,144.859512 350.154694,142.222870 
	C352.997955,137.874054 357.327789,135.377899 362.017548,133.456726 
	C365.557434,132.006622 369.424164,131.074875 372.335266,128.511200 
	C383.253754,118.895851 396.515228,114.047874 409.988770,109.548683 
	C413.765228,108.287636 417.453491,106.762482 421.017578,104.702133 
	C412.600739,106.781235 403.148743,103.733711 395.700470,110.611801 
	C393.010498,113.095856 389.697754,114.893814 385.909790,115.247719 
	C383.230560,115.498039 380.836517,114.744347 379.938812,111.867256 
	C379.112854,109.219986 380.495819,107.326675 382.642151,106.008682 
	C386.265869,103.783485 390.238342,102.934196 394.503632,102.661438 
	C412.148712,101.533066 429.928864,101.588066 447.219604,97.053658 
	C422.886322,93.677361 398.753204,92.388512 375.744598,103.630440 
	C372.607239,105.163353 369.359314,106.485100 366.109314,107.769867 
	C345.540527,115.900848 327.792511,128.249695 312.132050,143.740326 
	C311.304749,144.558685 310.480347,145.399231 309.552185,146.092255 
	C307.832764,147.376068 305.802246,147.989609 304.006226,146.612061 
	C302.122345,145.167130 302.463074,143.020844 303.437714,141.140121 
	C305.736755,136.703796 307.945526,132.200760 310.562134,127.953453 
	C314.744568,121.164574 318.974365,114.382622 323.345642,107.735954 
	C327.997864,100.662163 336.131622,97.891090 343.672028,94.749634 
	C346.103149,93.736786 348.682526,93.079712 352.278168,91.906021 
	C330.487366,95.397530 312.944763,102.421165 298.228424,116.799416 
	C290.906036,123.953613 282.962189,130.062744 274.471863,135.744278 
	C256.622070,147.688995 240.671204,161.722992 229.814667,180.683807 
	C227.421570,184.863342 225.976852,189.578110 222.846146,193.347412 
	C221.902847,194.483154 220.832214,195.550812 219.668762,196.455215 
	C218.566193,197.312302 217.194550,197.579681 215.940552,196.713684 
	C214.654831,195.825806 214.465088,194.424347 215.053070,193.139084 
	C217.266342,188.301041 216.881805,183.035172 217.670670,177.968231 
	C218.013535,175.766037 218.870865,173.810028 219.903275,171.914093 
	C238.001755,138.678040 239.939316,136.650360 272.490997,116.652809 
	C272.766418,116.483612 273.008545,116.260307 274.188873,115.353165 
	C272.440216,115.889114 271.603027,115.983795 270.938873,116.373444 
	C259.988800,122.797684 248.273178,127.632828 236.757858,132.881653 
	C225.719559,137.913055 216.770065,146.106155 207.200516,153.209229 
	C201.280655,157.603302 199.761993,165.684677 199.060120,173.069672 
	C197.911560,185.154587 196.965500,197.336288 199.593048,209.320816 
	C201.507660,218.053543 207.642334,224.962646 210.981873,233.152222 
	C214.891754,242.740494 220.256058,251.596848 225.717972,260.377838 
	C227.211838,262.779510 228.631134,265.241882 229.875168,267.779144 
	C230.612061,269.282074 230.963577,271.060699 229.552734,272.439880 
	C228.354980,273.610718 226.649155,273.593689 225.304611,273.013611 
	C218.081573,269.897430 210.226791,268.814972 202.929565,266.095886 
	C192.670639,262.273224 188.430435,253.381531 185.884872,243.525101 
	C183.873932,235.738724 184.413147,228.086807 187.224258,220.489426 
	C191.529312,208.854492 193.656265,196.803223 193.821899,184.360916 
	C193.925110,176.608307 194.729294,168.885544 197.692368,160.223557 
	C187.836594,169.948303 181.290253,179.411423 184.722641,192.925125 
	C185.734970,196.910797 185.762283,201.094864 187.025314,205.126129 
	C188.213135,208.917389 186.994156,212.711655 184.807159,216.063736 
	C183.577377,217.948685 182.075302,219.760345 179.575485,219.029877 
	C176.731781,218.198929 175.896881,215.572784 176.115036,213.037064 
	C176.293732,210.959702 177.282776,208.898178 178.168015,206.945435 
	C180.969971,200.764603 181.300720,198.728104 180.144745,190.650284 
	C175.420563,199.347519 170.837845,207.291000 168.566696,216.330139 
	C167.991135,218.620850 168.882721,220.518173 169.858932,222.508377 
	C172.337753,227.562042 171.785995,232.571564 168.974991,237.290527 
	C167.706604,239.419785 165.602676,240.584457 163.010590,239.973145 
	C160.255600,239.323395 158.904800,237.480621 158.665604,234.606415 
	C158.249405,229.605255 159.299622,225.005066 161.955429,220.766800 
	C165.079834,215.780701 166.416046,210.135284 168.434692,204.105835 
	C166.044693,205.711060 166.080719,207.860062 165.504517,209.634033 
	C164.604736,212.404358 163.283188,214.831573 161.034744,216.707001 
	C159.171219,218.261353 157.124359,219.668930 154.781326,217.906326 
	C152.624664,216.283875 152.599319,214.023361 153.606674,211.596451 
	C154.729462,208.891479 156.296692,206.481842 158.839737,205.093918 
	C163.740295,202.419373 167.515320,198.373718 171.840347,195.003479 
	C173.755157,193.511383 174.997574,191.722931 175.862411,189.452744 
	C178.501862,182.524155 180.932098,175.499329 184.495834,168.913910 
	C170.810349,181.734146 158.095779,195.218857 150.928116,213.007706 
	C148.145599,219.913437 146.716599,227.102432 146.459732,234.393387 
	C146.043350,246.211868 146.368774,258.055542 146.308228,269.888214 
	C146.295029,272.468262 147.075623,274.433929 149.472260,275.608521 
	C155.834747,278.726776 158.610062,284.296753 159.134705,290.925262 
	C160.066162,302.693909 160.629608,314.492493 161.279404,326.282288 
	C161.589355,331.905823 159.911209,337.164124 157.801025,342.257599 
	C155.762772,347.177490 152.997345,347.704956 149.056366,343.983398 
	C141.714142,337.050018 137.467545,328.824127 137.613724,318.375854 
	C137.820847,303.573120 136.970505,288.738892 142.310394,274.446198 
	C143.303421,271.788300 142.622208,268.506897 142.723862,265.513611 
	C143.208817,251.234512 141.525192,236.890823 143.894028,222.575485 
	C137.403824,235.760254 129.888687,248.217987 119.956017,259.134949 
	C116.763214,262.644165 115.646255,267.373505 114.379135,271.857422 
	C110.983620,283.872986 107.477722,295.852203 103.211357,307.592224 
	C101.910088,311.173004 101.472382,314.986877 102.690536,318.394989 
	C107.895401,332.956848 112.197128,347.876068 119.393013,361.680450 
	C121.617722,365.948303 124.804321,368.601746 129.531891,369.792511 
	C136.719971,371.603180 143.307358,374.529419 148.432907,380.312378 
	C151.207733,383.443085 155.140762,385.219574 158.973969,386.880737 
	C166.044174,389.944641 172.313660,394.403473 178.954529,398.213379 
	C180.417633,399.052734 181.789795,400.206604 181.665176,402.105591 
	C181.541626,403.988312 179.857300,404.567657 178.421616,404.653625 
	C169.722153,405.174530 161.724304,409.184509 153.022644,409.645477 
	C149.111267,409.852692 145.696701,408.832794 142.124435,407.030151 
	C126.494316,399.142883 120.330177,385.225403 116.309265,369.314880 
	C112.857803,355.657684 106.143784,343.060913 102.454041,329.216888 
	C101.731003,329.773529 101.317215,329.930023 101.291626,330.134949 
	C99.508057,344.418213 98.698418,358.787537 103.976852,372.454193 
	C106.175697,378.147339 109.745834,383.509857 116.181610,386.314667 
	C120.128830,388.034943 121.823799,392.220276 122.500313,396.551636 
	C122.868210,398.907104 122.531769,400.964386 120.208427,402.058929 
	C118.014603,403.092468 115.970093,402.489380 114.227425,400.876984 
	C110.850601,397.752563 109.954155,393.428284 108.800377,389.277863 
	C108.129021,386.862854 107.408005,384.601562 104.514336,382.297333 
	C105.928078,391.726776 105.293907,400.510223 114.328262,406.149017 
	C119.743515,409.528961 121.398933,416.054993 123.070625,422.027649 
	C123.845398,424.795776 122.441994,426.861176 120.144096,428.350098 
	C117.777306,429.883606 115.619110,429.129547 113.746559,427.487122 
	C110.660889,424.780701 108.625648,421.354950 107.667305,417.365479 
	C105.495209,408.323273 102.740898,399.356781 101.435036,390.186951 
	C99.821770,378.858490 98.683022,367.459686 96.259224,356.066406 
	C94.126419,363.425568 92.232803,370.827057 91.837158,378.412231 
	C91.329765,388.139374 87.720886,397.649902 90.150269,407.615814 
	C91.099640,411.510376 91.727058,415.568726 93.644730,419.012878 
	C101.439178,433.011566 110.488121,445.035675 127.181244,450.470886 
	C143.049774,455.637634 158.908569,461.689697 172.882645,471.400543 
	C173.840378,472.066132 174.871490,472.647522 175.743179,473.411072 
	C177.670456,475.099304 180.726379,476.277100 179.865295,479.588226 
	C179.095612,482.547974 176.098434,482.633575 173.738815,483.105927 
	C167.366440,484.381531 161.643600,487.614868 155.107544,488.610596 
	C148.573120,489.606049 142.750916,488.472443 137.460556,485.052032 
	C127.067162,478.332397 117.852509,470.057007 113.765594,458.124054 
	C109.647469,446.099945 100.991203,437.657166 92.918884,427.511169 
	C91.612450,434.866669 92.271294,441.281738 95.163536,447.277405 
	C101.014717,459.406860 106.534004,471.687469 117.327225,480.712799 
	C123.602280,485.959991 125.880531,494.043457 129.318649,501.259094 
	C139.664536,522.972107 146.468018,545.996704 154.516998,568.558716 
	C155.532928,571.406494 157.353638,575.227478 153.824768,577.120117 
	C150.411530,578.950684 148.191803,575.704651 146.206528,573.134033 
	C139.876312,564.937622 131.573288,558.597839 125.065712,550.523926 
	C116.053848,539.342896 109.401855,526.992249 104.947647,512.978088 
M124.073364,541.437439 
	C129.211121,548.581543 134.942505,555.169861 142.670074,561.505432 
	C141.127899,557.716064 140.126633,554.934021 138.886826,552.262695 
	C131.832581,537.063171 125.889420,521.436707 116.896233,507.033264 
	C109.101990,494.549988 103.852455,480.480591 97.417862,467.141357 
	C96.771492,465.801422 96.457321,464.081696 94.832138,463.212097 
	C91.277359,475.480713 93.602562,486.178558 101.303757,495.885040 
	C105.172974,500.761719 107.428062,506.538483 109.425789,512.390625 
	C112.884262,522.521912 117.188065,532.230225 124.073364,541.437439 
M45.184513,421.639252 
	C36.747265,435.888580 32.910824,449.363983 35.308788,456.847412 
	C38.180420,453.880219 40.476444,450.635864 42.337917,447.126953 
	C44.671486,442.728180 46.649567,438.100861 50.161350,434.470764 
	C57.319901,427.071045 58.747055,417.565491 60.719601,407.657318 
	C54.031033,410.962982 48.758949,414.832703 45.184513,421.639252 
M155.708313,484.451447 
	C159.360245,483.092957 163.012192,481.734467 167.575195,480.037048 
	C148.902573,473.944885 132.370224,466.038177 116.860138,453.877869 
	C118.954208,460.727112 121.831490,465.664825 125.953529,469.561951 
	C134.114227,477.277466 141.878540,486.075470 155.708313,484.451447 
M209.343018,263.151001 
	C212.430695,263.763428 215.518387,264.375824 218.606064,264.988251 
	C199.471741,254.531082 197.607758,235.455673 193.856415,216.811951 
	C191.684433,221.093170 190.589462,225.101028 189.712128,229.141464 
	C186.697037,243.027191 195.818665,259.247101 209.343018,263.151001 
M144.143906,553.372620 
	C139.203552,534.503174 131.248886,516.768555 123.681976,498.883728 
	C119.808617,489.728821 114.533440,481.741180 105.764877,475.984039 
	C105.827301,478.615326 107.249100,480.322632 108.036308,482.259308 
	C116.603035,503.334686 131.047531,521.472229 138.433350,543.155762 
	C139.816483,547.216370 141.912338,551.045959 143.852173,554.895081 
	C144.237915,555.660461 144.493301,554.838257 144.487930,554.373413 
	C144.486069,554.213074 144.403351,554.053711 144.143906,553.372620 
M240.092453,89.667580 
	C234.104950,87.223526 228.117462,84.779472 222.129959,82.335419 
	C225.882690,84.749908 229.040085,87.741165 232.348831,90.466652 
	C237.363281,94.597176 243.042236,97.546021 249.369141,98.241905 
	C261.738861,99.602425 274.214111,100.642685 286.636505,99.391327 
	C291.482178,98.903198 296.681305,99.345360 301.923492,96.690750 
	C295.895447,95.189621 290.359558,93.901855 285.019623,94.609512 
	C269.835938,96.621666 255.266006,94.209702 240.092453,89.667580 
M61.198860,420.491302 
	C60.083508,425.616119 57.841412,430.184845 54.530415,434.256165 
	C47.969334,442.324005 43.743156,451.838531 37.301067,461.371490 
	C47.330200,454.828094 57.771709,450.390045 61.889984,439.414246 
	C65.705246,429.246063 66.360855,418.492096 66.249771,407.718597 
	C63.594131,411.403961 62.377380,415.520630 61.198860,420.491302 
M158.771393,399.093323 
	C152.071091,396.791138 147.508575,390.628815 140.722198,388.708832 
	C133.328964,386.617126 127.232857,383.123291 123.419952,376.171661 
	C129.119446,398.936859 150.813721,412.582489 167.622437,401.369873 
	C165.116577,399.553406 161.960938,400.744476 158.771393,399.093323 
M324.095154,115.526253 
	C322.758820,118.195229 321.422455,120.864204 319.783417,124.137695 
	C338.537537,108.368454 358.885284,97.303375 382.757019,91.867325 
	C374.525085,92.226685 366.933716,92.840721 359.502960,94.632805 
	C352.061554,96.427452 344.923492,99.133736 337.954926,102.278687 
	C332.036865,104.949516 327.151184,108.768211 324.095154,115.526253 
M293.213440,91.941193 
	C293.858307,92.103142 294.495758,92.341835 295.150177,92.405441 
	C295.803986,92.469009 296.677521,93.061127 297.135681,91.828468 
	C287.740356,88.688393 278.363800,86.484871 268.424774,86.007965 
	C254.562210,85.342789 240.520096,85.238426 227.283966,79.879997 
	C223.549408,78.368126 220.038116,76.103134 215.830627,75.879494 
	C224.141739,79.620117 232.386093,83.600883 241.003311,86.456558 
	C253.289658,90.528168 265.852264,93.480209 279.066620,91.904747 
	C283.482239,91.378311 288.012421,91.812798 293.213440,91.941193 
M147.507294,303.907104 
	C144.904419,298.190460 146.437012,291.662750 144.238098,285.101685 
	C143.727875,286.343964 143.442719,286.781677 143.370331,287.252136 
	C141.618637,298.635315 141.835449,310.103607 142.269684,321.542206 
	C142.517380,328.067719 146.117111,333.195984 151.131653,338.900360 
	C152.929916,326.297211 148.592010,315.681732 147.507294,303.907104 
M103.349739,205.235535 
	C97.056732,205.404816 90.842545,207.056824 84.463745,205.812744 
	C75.829353,204.128754 68.299805,200.353317 61.450092,193.523270 
	C61.791992,197.394714 63.095020,199.685608 64.706886,201.769180 
	C71.291237,210.280289 79.897423,213.682922 90.595695,212.132507 
	C99.124023,210.896561 107.380676,209.033325 115.938812,203.673889 
	C111.138756,204.398300 107.597946,203.953094 103.349739,205.235535 
M171.125580,149.532364 
	C174.040466,148.884567 176.966278,148.281845 179.868027,147.579758 
	C186.305420,146.022232 193.204544,147.044876 199.382599,144.027359 
	C205.154755,141.208099 210.955444,138.447250 216.743576,135.660706 
	C210.871674,138.615158 204.090073,136.364014 198.168732,139.027664 
	C191.476257,142.038208 184.383316,143.805496 177.145828,145.101990 
	C167.351440,146.856537 157.731445,149.074570 147.543015,147.576431 
	C142.581757,146.846893 137.345444,146.724533 132.220963,146.637009 
	C144.661102,151.193497 157.258881,153.426178 171.125580,149.532364 
M67.399902,308.896637 
	C71.681503,304.306000 75.167458,299.133301 78.879860,293.680054 
	C66.990921,297.051971 41.801228,325.078033 40.792133,336.307800 
	C51.410736,328.746246 57.130241,317.064209 67.399902,308.896637 
M65.987152,192.737991 
	C75.386154,203.016251 94.934601,205.598450 109.756813,199.973297 
	C95.935135,192.262848 80.606750,194.584229 65.987152,192.737991 
M156.736374,321.552887 
	C156.355835,312.924469 155.418777,304.330811 155.538361,295.664795 
	C155.588196,292.053528 154.753891,288.367645 153.044739,285.073700 
	C152.119507,283.290558 151.327942,281.045746 148.250122,281.281006 
	C147.665802,299.339600 153.711594,316.265533 155.379196,334.556641 
	C157.362564,330.141815 156.684570,326.286438 156.736374,321.552887 
M67.434929,320.954468 
	C81.499863,303.835266 83.059608,301.158966 81.627800,295.956238 
	C71.213654,309.742340 58.733528,321.432312 47.715675,335.493683 
	C56.899170,333.456360 62.174156,327.793884 67.434929,320.954468 
M247.037552,139.526932 
	C238.775345,147.756561 235.557892,152.280884 234.397797,156.939911 
	C248.475601,139.720551 269.398621,130.260132 286.166229,115.601242 
	C272.487335,122.116165 259.460205,129.652222 247.037552,139.526932 
M328.871826,81.521820 
	C332.273102,82.278694 335.658722,83.117783 339.080078,83.769188 
	C342.455963,84.411942 345.867981,84.864807 349.264160,85.400986 
	C330.203217,78.404846 309.540344,75.432716 294.419556,59.302162 
	C297.375763,70.626099 304.728363,75.887970 315.089996,77.852158 
	C319.479248,78.684219 323.752655,80.127640 328.871826,81.521820 
M154.551590,144.707901 
	C169.573166,144.598282 183.840515,141.110901 197.568985,135.032043 
	C174.042969,139.198776 150.601028,143.904175 126.440681,142.004074 
	C135.628693,142.139114 144.528473,144.350967 154.551590,144.707901 
M203.431488,242.113312 
	C204.789337,245.149429 206.048691,248.234543 207.528351,251.210098 
	C209.697784,255.572723 213.343460,258.029755 218.381195,258.872925 
	C210.975021,246.820587 206.452988,233.427673 199.130768,220.805145 
	C197.765640,227.436630 198.164734,229.315796 203.431488,242.113312 
M131.905289,460.629395 
	C144.067657,467.768951 156.483948,474.262970 171.349808,476.493591 
	C165.439529,470.431000 132.250458,455.377106 125.559387,455.705231 
	C127.709328,457.396545 129.513428,458.815765 131.905289,460.629395 
M347.786987,111.214264 
	C361.560669,104.703880 375.583099,98.788589 389.912476,93.607742 
	C366.122864,96.852158 332.839996,113.413773 322.979919,126.682617 
	C331.589966,123.058105 338.746429,116.333908 347.786987,111.214264 
M157.314240,391.294678 
	C151.551773,388.583069 146.405365,385.028839 141.846695,380.542023 
	C138.090958,376.845490 133.526337,374.776611 127.588150,374.655914 
	C129.771133,380.108215 133.628830,383.233643 138.489380,384.490570 
	C143.966614,385.906952 148.605469,388.253510 152.759949,392.085724 
	C156.605652,395.633118 161.444366,397.103607 167.176041,397.233887 
	C164.590179,393.833374 160.964874,393.262146 157.314240,391.294678 
M260.517761,139.969406 
	C269.472778,132.453278 280.599670,127.850327 288.682587,119.136856 
	C287.781067,119.193672 287.079987,119.543930 286.445923,119.989517 
	C274.871796,128.123047 263.137207,136.041901 251.798767,144.492157 
	C244.556076,149.889954 237.881424,156.059647 233.478714,165.379166 
	C242.782364,156.609833 251.370239,148.515167 260.517761,139.969406 
M312.726593,68.783691 
	C325.085754,75.141747 334.259827,78.314003 339.140747,77.916931 
	C328.401489,72.286652 317.637756,66.714493 304.613525,62.845886 
	C307.397278,66.000885 309.803131,67.136055 312.726593,68.783691 
M368.513702,137.759216 
	C368.262299,136.794983 367.606598,136.343353 366.678345,136.634155 
	C362.187714,138.040985 358.051971,140.069229 354.941864,143.750610 
	C353.988647,144.878922 352.741241,146.096191 353.911469,147.673660 
	C354.978119,149.111526 356.621826,148.769547 358.033569,148.287247 
	C362.998260,146.591141 366.620453,143.412018 368.513702,137.759216 
M356.117676,57.171501 
	C354.526459,57.412964 352.724426,57.247757 352.040161,59.254986 
	C356.680084,64.235512 364.670837,64.912415 369.853455,60.782806 
	C365.125977,57.451729 364.268188,57.207130 356.117676,57.171501 
M32.022358,270.619751 
	C34.715351,269.235107 37.594002,268.069458 39.215305,264.992920 
	C30.858936,263.197021 26.649281,264.902588 24.848085,270.616852 
	C26.927164,272.446075 29.119137,271.622833 32.022358,270.619751 
M118.003006,423.814117 
	C118.674675,417.664276 115.248886,413.650238 110.898376,410.104034 
	C111.501549,415.497864 112.238876,420.812744 118.003006,423.814117 
M395.823700,145.708664 
	C395.982086,144.626205 397.063049,143.636368 395.955872,142.139038 
	C392.140259,144.923904 388.857849,147.942963 387.447876,153.236771 
	C392.919525,153.179001 394.247009,149.732620 395.823700,145.708664 
M366.023743,34.525570 
	C368.306549,39.352089 372.372711,39.763256 376.942108,38.975506 
	C373.894287,36.183884 371.323639,32.411743 366.023743,34.525570 
M34.480965,235.496719 
	C37.474072,235.696472 40.497116,236.499512 44.258671,235.347137 
	C40.853218,232.909180 38.115837,231.201797 34.596657,231.332489 
	C33.388165,231.377380 32.144176,231.555145 31.781967,232.872940 
	C31.358644,234.413071 32.766823,234.722031 34.480965,235.496719 
M61.774006,278.522064 
	C64.798401,276.649902 66.687103,274.179230 66.402763,270.051727 
	C62.948296,271.900757 61.206669,274.575043 60.022484,277.673401 
	C59.551804,278.904938 60.237213,279.089722 61.774006,278.522064 
M163.185822,233.424118 
	C164.902267,236.248489 165.884995,234.242157 166.316544,232.722595 
	C166.988602,230.356140 167.169250,227.857574 165.483246,225.454315 
	C163.170197,227.506393 163.113785,230.125092 163.185822,233.424118 
M224.213913,174.122955 
	C222.544495,177.013382 221.917740,180.149536 221.825577,184.445267 
	C224.675369,179.947144 225.433380,175.818619 225.767639,171.518066 
	C225.342743,172.194183 224.917847,172.870316 224.213913,174.122955 
M76.709320,225.469452 
	C74.203087,225.334900 71.641205,224.404572 68.937431,225.766541 
	C72.568291,228.326874 73.885078,228.286575 76.709320,225.469452 
z"/>
<path fill="#000000" opacity="1.000000" stroke="none" 
	d="
M701.770142,549.262939 
	C696.730042,551.127991 692.021790,550.697266 687.786682,548.569519 
	C676.698059,542.998474 665.406067,544.096741 653.666992,545.877136 
	C642.022949,547.643127 633.280701,552.979919 626.259705,562.223694 
	C621.648254,568.295105 616.215454,573.742737 611.347351,579.764160 
	C621.202087,575.935181 631.931091,573.921448 640.490723,567.805420 
	C646.869690,563.247498 653.533386,559.817078 660.724854,557.284058 
	C669.844788,554.071899 679.188721,551.227417 689.035522,553.467285 
	C701.361572,556.271179 710.205322,562.859985 712.552368,576.149414 
	C712.836914,577.760681 713.597046,579.301453 714.239441,580.831787 
	C714.752075,582.052979 715.668701,583.265564 714.470825,584.484863 
	C713.404114,585.570740 711.963745,585.393250 710.709167,584.914185 
	C699.310730,580.562378 687.243530,580.511353 675.349304,579.427246 
	C668.753601,578.826050 662.813293,576.135864 656.732666,573.959839 
	C649.847229,571.495728 643.661682,571.763184 636.594849,574.514099 
	C619.360657,581.222900 602.909607,588.819458 589.775391,602.325317 
	C583.349548,608.932983 575.674988,613.991150 567.889160,618.853943 
	C563.372925,621.674622 558.871704,624.519287 554.301208,627.392456 
	C555.248291,628.249878 556.005798,627.373474 556.643311,627.004578 
	C574.252136,616.816101 594.093079,616.189697 613.497131,613.788635 
	C618.657898,613.150024 623.778870,614.185974 628.796570,615.537659 
	C635.378174,617.310608 641.996582,618.952637 648.545837,620.836609 
	C650.754150,621.471863 653.003601,622.382935 654.866272,623.691711 
	C657.048462,625.224976 659.083740,627.385193 658.227722,630.403503 
	C657.319092,633.607178 654.325134,633.039856 651.923523,633.030945 
	C644.763794,633.004456 637.612488,632.916931 630.447327,632.545288 
	C618.986938,631.950562 607.558228,631.950806 596.235291,634.996033 
	C578.982361,639.636108 561.004761,639.592896 543.452637,642.365845 
	C529.744629,644.531555 516.431030,648.042603 504.232361,655.003052 
	C497.045532,659.103821 489.112091,661.577209 481.575897,665.189941 
	C488.381531,665.517212 495.111359,665.168274 501.843048,665.606506 
	C508.647644,666.049500 515.424622,666.625244 522.189819,667.449951 
	C528.537476,668.223694 533.808838,671.273193 538.811768,674.989990 
	C544.551147,679.253906 550.147339,683.706848 557.134521,685.971069 
	C561.742065,687.464172 564.263794,691.285583 566.122620,695.504761 
	C566.833923,697.119263 568.037415,698.966187 566.454529,700.623962 
	C565.160034,701.979736 563.283142,701.539368 561.698181,701.126953 
	C556.709778,699.829102 551.545593,698.891174 546.834656,696.901794 
	C532.808533,690.978516 518.296326,688.289856 503.088470,688.179565 
	C489.855896,688.083557 477.256470,683.968445 464.485779,680.929321 
	C453.022186,678.201172 441.350922,677.001831 428.382050,679.876587 
	C437.124298,683.635010 445.188507,685.505676 453.162384,687.299500 
	C465.350311,690.041260 474.778442,695.576416 479.286072,707.895081 
	C480.428375,711.016785 482.925842,713.410461 485.434845,715.678223 
	C487.064758,717.151550 489.924896,718.752258 488.275391,721.295410 
	C486.541290,723.969116 483.991425,721.845093 482.096283,720.786987 
	C464.159821,710.773315 444.444580,704.719299 426.156189,695.421997 
	C411.612640,688.028503 395.641296,685.436646 379.383484,684.241455 
	C369.137848,683.488220 358.957764,681.718384 348.781067,680.186951 
	C339.063751,678.724609 329.273010,678.394287 319.433594,677.787292 
	C318.768585,679.364136 320.267761,679.784607 320.974518,680.395935 
	C328.449402,686.860291 336.530731,692.346497 345.756042,696.112122 
	C350.595734,698.087585 355.491028,698.170715 360.482544,697.535461 
	C362.997253,697.215454 365.053467,696.047729 366.812988,693.969849 
	C370.020264,690.182129 374.407013,688.681213 379.309357,689.197083 
	C381.702087,689.448792 383.989044,690.451599 384.096710,693.391418 
	C384.191650,695.982544 382.329407,697.161133 380.166656,697.938232 
	C377.014984,699.070618 373.781250,699.951599 370.416901,699.650696 
	C368.180725,699.450745 366.219788,699.971802 363.744080,701.056824 
	C368.729675,704.400269 374.323090,703.235352 379.219666,704.725098 
	C388.352936,707.503784 396.769012,703.661987 405.474426,702.443298 
	C410.120819,701.792847 414.390625,703.149353 418.408905,705.275818 
	C420.514099,706.389954 422.318665,708.080933 422.111542,710.756287 
	C421.892456,713.585571 419.932465,715.099365 417.414917,716.014893 
	C411.454895,718.182312 405.362000,717.979004 399.932129,715.109375 
	C390.718201,710.240051 380.873779,708.348938 370.728577,707.366699 
	C364.321960,706.746582 358.427063,703.813232 350.664764,702.857239 
	C361.433350,712.588989 371.990295,720.221008 383.846069,726.045349 
	C385.984528,727.095886 387.717194,725.739807 389.615295,725.397400 
	C396.202789,724.209106 401.783630,726.105408 406.337433,730.909790 
	C408.461761,733.151001 409.063873,735.952026 407.665100,738.767151 
	C406.205841,741.704102 403.288147,741.644592 400.645660,741.201294 
	C396.151428,740.447205 391.954529,738.783447 388.637512,735.509277 
	C384.290710,731.218689 379.042542,728.391541 373.093750,725.565308 
	C374.660370,730.830933 378.264984,733.380432 382.529266,735.302185 
	C386.345215,737.021973 390.159302,738.747437 392.335114,742.651306 
	C393.618561,744.954163 394.352081,747.321716 392.375183,749.589783 
	C390.388519,751.868896 388.145355,750.826355 386.001404,749.805908 
	C382.254517,748.022461 379.434204,745.218872 377.619843,741.524597 
	C368.523438,723.003052 353.639679,709.851196 337.264465,698.144287 
	C328.722748,692.037659 320.018585,686.163818 312.272369,679.030396 
	C310.512726,677.409973 308.546173,676.184448 306.220398,675.702515 
	C298.459473,674.094116 291.338501,670.871277 284.530396,666.969177 
	C277.409454,662.887817 269.574188,660.458679 262.226532,656.922485 
	C260.836761,656.253601 258.510559,655.912476 259.319427,653.653137 
	C260.014252,651.712463 261.976013,652.292236 263.674774,652.434631 
	C276.170654,653.481628 287.986786,656.752625 298.304901,664.018677 
	C307.301300,670.353760 316.948425,669.195251 326.634125,667.202698 
	C331.514435,666.198792 336.469025,657.214111 336.716949,650.507935 
	C336.826965,647.532410 336.371277,644.528992 337.559418,641.618652 
	C338.944244,638.226562 340.973206,635.586914 344.530792,634.261536 
	C346.699371,633.453613 348.512634,633.995300 349.991943,635.541504 
	C351.418915,637.032959 351.504761,638.860840 350.417328,640.610779 
	C349.279633,642.441589 348.342194,644.584839 346.750366,645.911194 
	C341.401703,650.367554 339.829773,656.626099 337.688965,663.505432 
	C346.925598,660.423950 353.431580,654.957092 357.790833,646.950195 
	C360.495148,641.983093 362.642639,636.708984 366.327606,632.309998 
	C367.576263,630.819397 367.638031,628.970886 367.684418,627.104065 
	C367.812469,621.951721 370.297241,617.844727 373.875366,614.417175 
	C376.786224,611.628723 380.275604,610.566711 383.802673,613.252197 
	C387.318054,615.928894 386.578003,619.328613 384.686768,622.643311 
	C382.248352,626.916931 379.182190,630.755798 374.644775,632.790100 
	C370.217529,634.774780 367.551941,638.063354 365.521149,642.239685 
	C363.490967,646.414734 361.231049,650.478088 358.893097,654.930786 
	C372.489777,652.168762 383.941040,645.809326 394.201050,637.064331 
	C395.631348,635.845215 395.493988,634.125916 395.745331,632.480225 
	C396.951233,624.584045 403.000488,618.226746 410.643982,616.904419 
	C414.049652,616.315369 417.551392,616.367920 419.468933,619.871765 
	C421.410736,623.419861 420.228180,626.663147 417.465454,629.348511 
	C415.916626,630.854065 414.451874,632.797485 412.556366,633.538391 
	C399.411743,638.676392 388.912292,648.514648 376.040039,654.006226 
	C367.170441,657.790039 357.959503,660.773071 348.910004,664.137939 
	C348.366119,664.340149 347.488129,664.183594 347.449005,665.583557 
	C354.553589,664.595032 361.587952,663.618958 368.621368,662.635925 
	C370.607178,662.358398 371.708527,660.814514 373.044342,659.573547 
	C375.914124,656.907471 379.204712,655.023376 383.196136,654.720581 
	C385.649567,654.534424 388.027222,654.932312 388.974579,657.593384 
	C389.960358,660.362427 388.727448,662.463806 386.332855,663.917053 
	C382.707581,666.117126 378.845490,667.684631 374.516388,667.279846 
	C361.478699,666.060730 348.781250,670.223145 335.722626,669.564026 
	C330.728699,669.311951 326.003113,672.948669 320.601105,672.281250 
	C320.606049,672.688660 320.610992,673.096130 320.615967,673.503540 
	C323.205475,673.503540 325.807922,673.335632 328.382202,673.533813 
	C337.506805,674.236145 346.606140,675.221436 355.787048,675.025757 
	C366.035706,674.807312 375.898163,673.018616 385.492523,669.255859 
	C405.548798,661.390015 424.840790,652.138611 442.374146,639.475342 
	C447.127625,636.042114 451.391815,632.094055 455.379486,627.819885 
	C456.514526,626.603271 457.637939,625.363220 458.881195,624.263306 
	C460.640289,622.707092 462.773987,621.979004 464.818512,623.411438 
	C467.071075,624.989746 466.386200,627.250488 465.331268,629.250366 
	C462.844360,633.964905 460.552521,638.819946 457.641357,643.264099 
	C453.547394,649.513977 449.697418,655.918518 445.616394,662.155273 
	C440.619873,669.791016 431.992493,672.482178 423.909180,675.617249 
	C421.620667,676.504883 419.253113,677.188660 417.017975,678.207642 
	C433.841339,674.511169 450.867798,670.689026 463.915710,658.586975 
	C476.445709,646.965210 490.551361,637.573486 503.964050,627.187683 
	C519.931274,614.823853 534.803467,601.145325 542.786743,581.730225 
	C544.038025,578.687134 546.142395,575.958252 548.611267,573.673279 
	C549.914734,572.466797 551.576233,571.959106 553.167175,573.116638 
	C554.621155,574.174438 554.544983,575.843323 553.836487,577.205322 
	C552.145935,580.455139 552.224854,583.919983 551.998230,587.418396 
	C551.772583,590.900208 550.936768,594.307068 549.345703,597.495422 
	C534.121521,628.003540 526.522522,635.984436 496.416931,653.003235 
	C495.417786,653.568054 494.434662,654.161194 493.599548,655.055237 
	C502.975006,650.999146 511.784760,645.729797 521.358337,642.136902 
	C536.239929,636.551941 548.281006,626.325623 561.156006,617.527222 
	C566.620850,613.792725 568.287781,607.016113 569.420410,600.882019 
	C571.605652,589.047668 571.227356,576.988831 570.517639,565.013733 
	C570.272400,560.877136 568.551697,556.947693 566.591858,553.236816 
	C558.038391,537.040955 550.627258,520.230347 540.494446,504.882172 
	C539.037903,502.675903 537.173523,499.886963 539.393372,497.611267 
	C541.447205,495.505798 544.324768,496.835693 546.832581,497.967346 
	C550.932251,499.817261 555.179077,501.103424 559.676758,501.831970 
	C572.245544,503.867981 580.559570,513.622986 583.363098,528.222717 
	C585.003723,536.766663 583.636536,544.817688 580.712463,552.689331 
	C576.952209,562.812073 575.415344,573.217529 575.195190,583.965820 
	C575.025757,592.238770 574.154358,600.490356 572.076050,608.624573 
	C580.236633,600.529358 587.704346,592.179504 584.591064,579.272217 
	C583.463135,574.595947 583.661926,569.738770 582.068420,565.064819 
	C580.587585,560.721375 582.349060,556.555847 584.913879,552.844910 
	C585.950195,551.345520 587.284241,550.458557 589.145752,550.885315 
	C590.927490,551.293823 591.925964,552.518616 592.429260,554.278137 
	C593.333435,557.438782 592.251892,560.257324 590.804626,562.880005 
	C588.099976,567.780884 587.759888,572.898987 588.782227,579.158081 
	C593.137634,570.859192 597.195068,563.341675 600.113464,555.255310 
	C601.033936,552.704895 600.676331,550.446045 599.367676,548.098511 
	C596.599792,543.133118 597.428894,538.120728 599.657227,533.224792 
	C600.819519,530.671143 602.922424,529.350403 605.718506,529.931580 
	C608.402832,530.489441 610.100159,532.221680 610.284851,535.130859 
	C610.562866,539.511108 610.426636,543.816223 607.886658,547.651123 
	C604.168762,553.264526 603.045410,559.912170 599.724854,566.944641 
	C602.769836,564.445068 602.971985,561.862854 603.675049,559.574829 
	C604.648804,556.405823 606.365356,553.877869 609.244446,552.186401 
	C610.910400,551.207825 612.673401,550.549316 614.319397,552.037964 
	C615.919739,553.485352 616.503235,555.351013 615.686951,557.474365 
	C614.587830,560.333191 612.964661,562.812744 610.390320,564.569336 
	C608.601929,565.789612 606.742737,566.912415 605.006165,568.201355 
	C598.095093,573.330872 592.108398,579.038208 589.984375,587.978333 
	C589.011536,592.072693 586.744873,595.859680 585.412170,599.953064 
	C606.222107,580.824829 623.392761,559.818115 622.687378,529.279663 
	C622.479614,520.284851 622.548340,511.279175 622.709961,502.282440 
	C622.782349,498.252258 621.762024,495.203369 617.945312,493.238281 
	C611.812683,490.080841 610.464111,484.060730 609.930969,478.034424 
	C608.934509,466.771210 608.390930,455.467560 607.688965,444.178833 
	C607.339355,438.555450 608.854675,433.283417 610.989319,428.178528 
	C613.342957,422.549835 615.809448,421.781952 620.220947,426.179382 
	C627.984802,433.918427 631.917542,443.531799 631.521851,454.559326 
	C631.217773,463.034637 631.609375,471.551910 630.314148,479.983612 
	C630.112610,481.296082 630.324524,482.746460 629.844788,483.930267 
	C624.856567,496.239044 626.449280,509.149353 626.265320,521.892273 
	C626.152832,529.683105 626.580688,537.486877 626.132080,545.570496 
	C627.272400,543.470886 628.516235,541.420044 629.533081,539.262207 
	C632.241760,533.514221 634.878540,527.482239 639.290405,523.045166 
	C650.884949,511.384399 655.445129,496.611115 659.530396,481.419769 
	C661.342529,474.681335 663.725952,468.094421 665.917175,461.460938 
	C666.996216,458.194183 667.462646,454.680328 666.316223,451.621918 
	C660.948914,437.302551 657.149231,422.383453 649.907471,408.769135 
	C647.477234,404.200378 644.126038,401.227264 639.035217,400.034607 
	C631.931335,398.370331 625.646362,395.225830 620.564758,389.743164 
	C617.954041,386.926361 614.474243,385.104980 610.959351,383.528595 
	C603.633179,380.242828 596.932556,375.862885 590.095825,371.718536 
	C588.663086,370.850006 587.030884,370.036896 587.257935,368.019318 
	C587.492493,365.935577 589.359253,365.425842 590.947937,365.223572 
	C599.065063,364.189972 606.814575,361.543518 614.804260,359.977966 
	C615.928101,359.757782 617.217346,359.600891 618.271729,359.926849 
	C629.876160,363.514099 640.143250,369.066284 645.214050,380.875610 
	C652.628479,398.142853 657.623047,416.303223 664.296997,433.850250 
	C665.115906,436.003418 665.493469,438.346710 666.981323,440.224426 
	C667.274292,440.043488 667.711670,439.916992 667.733459,439.739502 
	C669.446228,425.780090 670.231384,411.709198 665.448486,398.293152 
	C663.357910,392.428955 659.807434,386.719391 653.236694,383.825256 
	C649.003540,381.960693 647.074402,377.926300 646.536255,373.348663 
	C646.292358,371.273987 646.369019,369.174866 648.504700,368.122650 
	C650.816223,366.983826 653.117676,367.411285 654.946472,369.248199 
	C658.133850,372.449799 659.490479,376.581238 660.264526,380.874481 
	C660.756897,383.605133 661.932556,385.773468 664.656494,388.474396 
	C663.297363,378.545990 663.683228,369.426270 654.503540,363.530426 
	C649.087158,360.051605 647.371094,353.646637 645.952515,347.589722 
	C645.327515,344.921173 646.493042,342.568695 648.968933,341.303528 
	C651.320190,340.101990 653.562927,340.893188 655.377258,342.637054 
	C658.588379,345.723450 660.953247,349.520050 661.493408,353.863647 
	C662.644897,363.122650 666.555420,371.697479 667.563171,381.005646 
	C668.695557,391.464478 670.166077,401.910187 672.726379,413.068481 
	C676.823669,401.115540 676.971375,389.439026 678.778748,378.039734 
	C682.529663,354.382263 671.003479,337.506012 653.387817,324.793976 
	C644.778870,318.581512 633.315857,316.321960 623.141357,312.281616 
	C611.807190,307.780731 601.080322,302.131897 591.401001,294.702057 
	C587.480469,291.692657 588.043579,289.289703 592.798035,287.812836 
	C599.461060,285.743042 605.699219,282.454193 612.711121,281.350769 
	C620.379333,280.144073 627.325684,281.638123 633.500977,286.198700 
	C644.569397,294.372925 653.436096,304.196686 657.791992,317.704559 
	C661.064209,327.851562 670.035828,334.005249 676.657104,343.680389 
	C676.627930,338.729370 677.023010,335.310333 676.194946,331.905914 
	C672.552979,316.931427 666.312256,303.352173 654.887695,292.604218 
	C649.339050,287.384155 645.227600,281.210754 642.117981,274.280884 
	C632.772278,253.454163 624.562256,232.198517 617.646484,210.440643 
	C616.237976,206.009415 614.215698,201.774246 613.562927,197.105240 
	C613.290222,195.155045 613.336975,193.409271 615.425293,192.454224 
	C617.252930,191.618408 618.875610,192.400284 619.922058,193.680786 
	C630.642944,206.798874 644.535828,217.202026 652.896851,232.349686 
	C655.475891,237.022247 658.207825,241.618362 660.064270,246.625595 
	C664.063904,257.413483 668.464233,267.885040 675.192566,277.436066 
	C680.225342,284.580261 680.997498,293.244507 679.908936,301.934387 
	C679.661316,303.911041 679.282104,305.905914 679.341736,307.880981 
	C679.904724,326.538635 680.668518,345.185883 683.880249,363.627045 
	C684.928955,369.648865 683.899414,375.574402 683.210815,381.513062 
	C682.333557,389.077881 681.342346,396.629425 680.285400,405.107452 
	C688.292603,394.567444 694.317261,383.927368 699.296448,372.684570 
	C700.267761,370.491241 700.026672,368.144897 699.056274,365.873901 
	C698.475586,364.514709 697.713745,363.012848 697.800781,361.623199 
	C698.517029,350.192200 699.168884,338.699554 703.021851,327.790436 
	C705.010498,322.159668 709.002258,317.828461 713.998718,314.510864 
	C721.356140,309.625549 728.709229,304.733368 736.104248,299.905334 
	C737.581055,298.941162 739.189331,297.422028 741.077148,298.741180 
	C742.870728,299.994446 742.505859,302.067352 741.992432,303.803955 
	C739.435425,312.452759 739.185669,321.608429 736.899170,330.182678 
	C732.893677,345.202850 726.044739,358.924347 711.219788,366.595367 
	C707.529724,368.504730 704.470093,371.012726 702.749451,374.763184 
	C697.661804,385.852478 691.417725,396.287354 684.817627,406.501251 
	C677.787354,417.380890 676.719543,429.917847 674.283691,442.104706 
	C673.207031,447.491241 671.887268,452.832886 672.273987,458.395325 
	C673.030762,469.282532 670.478699,479.540497 666.361206,489.503815 
	C665.806152,490.846863 665.342896,492.227905 664.518433,494.450531 
	C670.390259,490.196960 674.889893,485.801880 679.389771,481.428650 
	C682.270020,478.629395 681.865662,474.627472 682.490723,471.093628 
	C682.995300,468.240723 683.602905,465.440094 685.313477,463.184814 
	C691.345093,455.232361 697.248413,447.147308 703.797485,439.632904 
	C709.952209,432.570984 718.677917,429.730591 727.544189,427.744080 
	C732.019531,426.741394 733.779846,428.566132 733.215454,433.231537 
	C732.687927,437.592163 731.243774,441.830261 728.494202,445.191162 
	C719.447327,456.249451 711.389404,468.248138 699.359375,476.566223 
	C696.034119,478.865448 692.693848,480.960907 688.611328,481.568451 
	C685.539612,482.025543 683.035461,483.455566 680.869263,485.724609 
	C679.151978,487.523499 677.154602,489.067169 675.208984,490.634064 
	C663.803040,499.819580 654.000549,510.082428 648.376160,524.114990 
	C645.057739,532.394470 638.466797,539.077454 634.026001,548.665283 
	C638.831177,545.616760 642.576355,543.385559 646.169495,540.931580 
	C654.053101,535.547363 662.294128,530.945374 671.509460,528.194458 
	C682.545654,524.899963 689.956177,517.278748 695.597107,507.615540 
	C696.647217,505.816803 696.796143,503.876007 696.957336,501.858734 
	C697.492188,495.166412 700.204651,489.655426 706.221924,486.218658 
	C708.471436,484.933899 710.995239,484.240143 713.213135,486.222931 
	C715.320679,488.107117 714.568848,490.500122 713.759277,492.721985 
	C712.186096,497.039886 709.902161,501.123352 705.963318,503.464996 
	C700.509827,506.707062 697.428162,511.675293 693.992126,517.595459 
	C703.532410,513.027405 712.507141,508.872681 721.932861,505.819122 
	C723.893005,505.184113 724.915344,503.222260 726.209045,501.710266 
	C730.063293,497.205627 734.990723,494.585022 740.800903,493.795471 
	C743.932800,493.369904 746.928284,494.228607 748.576721,497.177063 
	C750.339783,500.330444 748.596619,502.948303 746.586121,505.310211 
	C743.551514,508.875458 739.286194,510.623657 734.989563,510.159363 
	C719.391296,508.473816 706.479797,515.256836 693.553406,522.313965 
	C690.055298,524.223755 686.491943,526.014221 682.003967,528.357971 
	C686.475952,529.476807 690.134216,528.888977 693.684204,528.325867 
	C698.346436,527.586426 702.940796,527.307495 707.551575,528.462952 
	C714.268799,530.146362 721.095703,529.904114 727.920837,529.614197 
	C731.436707,529.464844 734.900940,529.488403 738.229370,530.901123 
	C741.373779,532.235779 743.126343,534.458313 742.461365,537.919983 
	C741.819092,541.263062 739.491577,543.015381 736.152039,543.338074 
	C730.400085,543.893738 724.958130,542.696106 720.985229,538.445312 
	C714.984741,532.025208 707.404358,530.965515 699.475403,531.538635 
	C692.021484,532.077332 684.629028,532.680115 677.121521,532.421631 
	C667.731079,532.098328 660.017944,536.912903 652.444397,541.912170 
	C661.650208,540.573975 670.790161,539.891479 679.978088,541.563965 
	C682.227844,541.973511 684.186096,540.744141 686.119446,539.783813 
	C690.480347,537.617859 695.019104,537.169373 699.732422,538.254211 
	C702.391418,538.866211 705.071411,539.627869 705.827209,542.690002 
	C706.609680,545.859802 704.497192,547.604492 701.770142,549.262939 
M633.360107,225.226273 
	C638.674805,238.295792 644.072754,251.321564 652.327332,262.915283 
	C652.896179,263.714203 653.185974,264.709534 653.621826,265.605652 
	C660.407410,279.558350 667.195740,293.509796 674.183167,307.872192 
	C677.606567,294.554108 675.097717,283.076996 666.885010,272.754333 
	C663.963623,269.082336 662.096436,264.801971 660.627563,260.346436 
	C654.648376,242.210129 645.239746,226.144669 631.639526,212.642258 
	C630.296570,211.308975 629.147278,209.584488 626.258118,209.244370 
	C628.656677,214.619019 630.867798,219.573868 633.360107,225.226273 
M715.284607,339.829712 
	C711.074707,346.679596 709.551758,354.370575 707.660645,362.297028 
	C720.014221,359.377502 735.235413,336.267273 734.878601,311.257172 
	C726.630371,319.427673 723.517395,330.958557 715.284607,339.829712 
M609.742371,292.627960 
	C624.725342,298.607819 639.445801,305.073730 651.798889,315.932526 
	C648.858337,304.678680 641.143494,297.444824 632.595886,290.931946 
	C623.025452,283.639923 613.232178,283.296600 602.387146,289.873779 
	C604.753235,290.750336 606.897156,291.544617 609.742371,292.627960 
M639.209656,247.131943 
	C633.927979,232.942947 627.341553,219.325836 620.936829,205.608795 
	C621.562439,208.283997 622.648621,210.799591 623.410278,213.409912 
	C629.204285,233.267334 636.911987,252.389404 645.351807,271.244568 
	C649.862305,281.321472 656.879822,290.331543 665.297241,296.272949 
	C665.072693,295.754883 664.898254,295.288239 664.674866,294.846344 
	C656.655090,278.977722 649.646912,262.567871 639.209656,247.131943 
M579.324951,531.227295 
	C574.973206,512.478088 568.702759,506.848602 550.172424,505.604156 
	C559.761658,509.462250 565.169739,516.700073 568.349304,526.222961 
	C571.251892,534.916260 574.382385,543.492371 574.848206,554.128052 
	C578.259827,546.143188 580.224731,539.380066 579.324951,531.227295 
M493.501312,670.227539 
	C484.413513,670.231018 475.308167,670.080688 466.536072,672.999268 
	C472.228912,674.801270 478.087463,676.081604 483.784454,675.307190 
	C501.450256,672.905945 518.103027,676.438110 534.448853,682.626648 
	C538.060547,683.994019 541.697083,685.295654 545.322205,686.627563 
	C541.962463,683.387817 538.347534,680.789795 534.753357,678.163391 
	C529.986816,674.680237 524.874512,671.874207 518.899048,671.381653 
	C510.783936,670.712646 502.664246,669.897888 493.501312,670.227539 
M708.944763,345.732880 
	C710.578918,340.739075 713.472717,336.504364 716.825134,332.529266 
	C722.529785,325.765045 725.031799,317.092010 730.550903,310.201630 
	C720.654480,315.427246 710.157776,320.095154 706.482849,331.611542 
	C703.391479,341.299133 702.490723,351.440582 702.714600,361.640686 
	C706.510315,357.182343 707.068665,351.633179 708.944763,345.732880 
M627.597839,368.920380 
	C619.104858,361.132416 610.375610,365.097382 601.558777,368.289520 
	C610.288025,369.775391 617.591858,373.747375 623.959290,379.638702 
	C624.778625,380.396820 625.946411,380.990692 627.041809,381.204407 
	C635.341370,382.824249 641.993896,386.760376 646.000732,394.578583 
	C642.584717,384.284088 638.697449,374.434906 627.597839,368.920380 
M429.632538,668.154846 
	C440.507935,664.286499 444.802185,654.549438 449.821228,645.156067 
	C431.637054,661.161072 410.747986,671.741638 386.721741,678.336060 
	C401.885803,676.871094 415.949860,674.925964 429.632538,668.154846 
M540.971741,688.621277 
	C529.449036,683.791260 517.789612,679.791504 505.249969,677.979675 
	C492.963837,676.204468 480.745422,680.553528 468.634796,676.852661 
	C480.141968,681.291016 491.905396,683.609375 504.176300,683.937866 
	C520.386963,684.371826 536.273926,686.905701 551.045532,694.220154 
	C551.519226,694.454712 552.286926,694.846741 552.545410,693.718201 
	C549.347107,691.178101 545.265259,690.602478 540.971741,688.621277 
M621.460388,465.173035 
	C622.439880,471.805450 623.419434,478.437897 624.398987,485.070343 
	C627.248718,472.483612 627.344543,459.907227 626.612061,447.364136 
	C626.252441,441.204315 622.719604,436.202515 618.194153,431.867004 
	C617.448792,433.820099 617.321106,435.584503 617.260010,437.351196 
	C616.940308,446.591156 620.408813,455.256134 621.460388,465.173035 
M665.770081,565.156006 
	C680.704956,561.192993 693.989441,565.444641 706.653992,573.591248 
	C703.527100,565.085632 697.449463,560.268677 689.092896,558.327637 
	C676.336121,555.364624 665.262878,560.896973 654.085693,566.081055 
	C657.691833,565.851562 661.298035,565.622009 665.770081,565.156006 
M691.642700,473.680084 
	C691.323242,474.552856 690.143738,475.065033 690.544434,476.254852 
	C702.125061,472.902710 727.357361,444.635193 727.534729,433.804596 
	C715.171143,446.439270 702.913574,459.172119 691.642700,473.680084 
M567.472473,626.923767 
	C563.685303,629.836914 558.847717,630.709290 553.857544,633.520996 
	C563.394714,631.901428 572.026733,631.355652 580.062805,627.753662 
	C583.195007,626.349731 586.758423,625.827698 590.174500,625.152283 
	C600.924316,623.026917 611.596924,620.400024 622.759827,622.582581 
	C627.149597,623.440857 631.757751,623.182617 636.266418,623.432739 
	C632.236084,621.653259 628.155090,620.378479 624.012573,619.352112 
	C615.717224,617.296936 607.416138,618.261658 599.306274,620.196594 
	C588.977966,622.660950 578.113342,622.436218 567.472473,626.923767 
M700.000427,574.373230 
	C688.787842,566.561707 669.457092,564.476257 659.583679,570.013000 
	C673.005432,578.416931 688.659973,574.263977 703.068542,578.334412 
	C702.820801,576.195374 701.412842,575.709839 700.000427,574.373230 
M614.393799,442.009369 
	C613.677368,439.259552 613.621277,436.482819 613.979492,433.614746 
	C613.127075,435.598389 612.425659,437.624908 612.324951,439.680817 
	C611.732056,451.795563 613.486877,463.824799 613.813538,475.910248 
	C613.858093,477.559052 614.018555,479.254669 614.464844,480.832581 
	C615.510193,484.528931 616.472717,488.386932 621.316895,490.007263 
	C620.848328,484.212433 620.735535,478.904053 619.931458,473.702545 
	C618.337402,463.390259 616.361877,453.136963 614.393799,442.009369 
M605.893616,625.400879 
	C592.703003,626.882324 580.159363,630.859985 566.331055,635.432922 
	C580.743469,634.785950 593.208069,631.075317 605.927490,628.852722 
	C618.554321,626.646179 631.350464,628.447815 644.080078,627.945801 
	C631.678955,626.305603 619.279907,625.247253 605.893616,625.400879 
M716.090698,440.629333 
	C717.797424,438.642853 719.504150,436.656372 722.017029,433.731476 
	C708.069763,438.992615 686.709839,463.301086 686.913452,473.300751 
	C696.704224,462.364288 706.183533,451.775757 716.090698,440.629333 
M559.364319,528.239075 
	C563.309021,534.769714 564.941956,542.578308 570.376221,549.305054 
	C571.180603,533.458252 559.365967,511.358551 549.777954,510.250549 
	C552.930176,516.141357 555.987122,521.854126 559.364319,528.239075 
M640.504089,311.947449 
	C629.112305,302.948242 606.305237,293.606415 598.291931,294.657257 
	C605.416382,300.086334 638.649597,314.937866 645.274414,315.508514 
	C643.683228,314.328979 642.362976,313.350220 640.504089,311.947449 
M448.260712,694.082825 
	C457.975433,697.433655 466.588226,702.667175 474.664459,710.734192 
	C471.319214,699.407959 464.541779,694.097717 454.368378,692.230103 
	C447.037598,690.884521 439.905609,688.488281 432.630676,686.793701 
	C428.156403,685.751526 423.579895,685.148071 419.049316,684.347534 
	C428.614655,687.557678 438.021545,690.841125 448.260712,694.082825 
M504.013092,638.566589 
	C496.971344,643.471802 489.692749,648.062134 482.516754,654.419800 
	C498.589905,647.766357 531.602112,627.435730 533.870483,613.127441 
	C525.944946,623.912354 515.150085,630.889221 504.013092,638.566589 
M393.183411,670.711853 
	C390.724854,671.838074 388.266266,672.964294 385.807678,674.090454 
	C408.573792,669.243225 428.786804,659.462463 445.680573,643.261047 
	C429.505737,654.416565 412.640503,664.242249 393.183411,670.711853 
M639.915161,395.548340 
	C642.903748,394.250183 640.626526,392.903046 639.811401,391.848938 
	C636.504272,387.572205 631.927063,385.367645 626.729431,384.368286 
	C623.534668,383.754059 620.735901,382.484741 618.535706,380.039124 
	C614.231689,375.255066 608.783936,373.133636 602.021667,372.841614 
	C604.384644,375.490936 607.177979,376.530640 609.856812,377.744324 
	C615.312744,380.216187 620.769897,382.750305 624.818176,387.336548 
	C628.723328,391.760681 633.604797,394.268005 639.915161,395.548340 
M522.365967,620.873657 
	C528.885193,615.124268 534.227295,608.460693 538.061462,600.605286 
	C532.847229,607.217163 526.520264,612.754211 520.730713,618.800476 
	C514.855469,624.936157 508.263123,630.299622 501.224915,635.065491 
	C494.411377,639.679199 486.987610,643.479553 481.536682,649.862244 
	C494.885803,640.226807 509.266022,632.050049 522.365967,620.873657 
M465.377777,706.438782 
	C455.218109,698.116699 442.690735,695.538086 430.601074,691.896606 
	C439.397736,697.626587 449.076996,701.487244 458.695953,705.455322 
	C461.235779,706.503052 463.956451,707.112549 466.594116,707.923279 
	C466.459656,707.649170 466.343933,707.363403 466.183105,707.105713 
	C466.099640,706.971985 465.936554,706.887878 465.377777,706.438782 
M415.328491,622.734558 
	C409.649200,619.708801 401.205688,625.740601 400.906738,633.772339 
	C406.958588,631.613770 412.661682,629.728333 415.328491,622.734558 
M415.318329,708.698486 
	C409.934509,705.989990 404.633240,705.887756 398.691162,708.938477 
	C403.842163,712.188110 408.733795,713.277649 413.947998,712.589661 
	C415.743042,712.352783 418.607941,712.069336 415.318329,708.698486 
M739.055176,504.878876 
	C741.294800,503.618561 743.892578,502.710724 744.353821,499.650482 
	C739.639893,497.294342 733.598450,499.651062 730.081238,505.321899 
	C732.929321,505.935486 735.630493,505.985138 739.055176,504.878876 
M656.186707,358.807281 
	C656.770447,359.230652 657.115295,360.240479 658.329346,359.507233 
	C657.301758,354.243866 656.573181,348.833252 650.418579,344.706451 
	C650.605530,350.907379 652.582764,354.865540 656.186707,358.807281 
M737.338135,536.561218 
	C733.825745,533.032043 729.798767,532.959656 725.475037,534.774231 
	C729.067993,537.160461 732.388794,540.783081 737.338135,536.561218 
M394.800720,730.213013 
	C393.881958,730.316711 392.799713,729.888672 391.993317,731.343384 
	C395.003632,734.474731 398.359436,736.710754 403.630463,736.458557 
	C401.978668,732.092651 398.963196,730.882385 394.800720,730.213013 
M380.663422,618.726990 
	C380.534271,616.777649 379.464508,616.402100 377.992523,617.367493 
	C374.517426,619.646790 372.785248,622.855652 372.690643,627.864014 
	C376.651611,625.449646 378.727905,622.535156 380.663422,618.726990 
M706.431030,496.817413 
	C707.599792,495.114807 709.283691,493.560577 708.257690,491.069000 
	C703.605225,493.381592 702.438232,495.209656 702.445679,499.985382 
	C703.960632,499.531799 704.941772,498.389343 706.431030,496.817413 
M602.250610,539.733704 
	C602.353699,541.460815 601.683533,543.355591 603.529175,545.031555 
	C606.154907,541.806091 606.452209,538.538879 605.097839,534.755188 
	C602.741882,535.689026 602.499512,537.317749 602.250610,539.733704 
M699.161011,544.627991 
	C700.050293,544.027771 700.216736,543.018433 699.234009,542.777466 
	C696.593018,542.129761 693.858398,541.763977 690.703369,543.836731 
	C693.661072,545.047607 696.078857,544.927368 699.161011,544.627991 
M545.004700,594.778809 
	C545.996582,592.546143 547.253052,590.364746 546.110046,586.590271 
	C545.007751,590.180420 544.179810,592.789490 543.426453,595.419861 
	C543.304871,595.844299 543.422668,596.528442 544.193726,596.097778 
	C544.450867,595.954041 544.575195,595.572693 545.004700,594.778809 
z"/>
<path fill="#000000" opacity="1.000000" stroke="none" 
	d="
M504.514282,303.528076 
	C487.285034,318.568024 468.024658,329.733612 447.825073,339.425476 
	C445.774414,340.409363 444.053650,340.311096 442.271332,338.920471 
	C440.469299,337.514465 441.323975,335.875153 441.835480,334.375977 
	C458.356750,285.954559 478.134460,239.100449 508.480927,197.420425 
	C518.521179,183.630447 529.765503,170.908325 543.569946,160.686768 
	C548.425415,157.091507 553.625793,154.295334 559.759583,153.305969 
	C563.902893,152.637665 566.883423,153.906555 569.291016,157.135742 
	C574.893921,164.650711 575.817200,173.353287 575.527588,182.290619 
	C574.834961,203.659882 567.220459,222.920502 556.883789,241.207397 
	C543.377319,265.102081 525.605164,285.499603 504.514282,303.528076 
M515.042725,197.518127 
	C484.921326,238.339279 465.034637,284.149109 448.189758,332.883240 
	C450.594482,331.790649 451.647552,331.340637 452.676270,330.840637 
	C483.736450,315.743927 510.227264,294.776947 531.945312,268.000183 
	C548.884094,247.115967 562.419373,224.292114 568.153137,197.577194 
	C570.399536,187.110550 571.896301,176.567596 568.018127,166.133698 
	C564.890564,157.719421 562.603516,156.762253 554.543030,160.364868 
	C552.129883,161.443405 549.768738,162.762711 547.631409,164.313110 
	C535.105042,173.399536 524.883911,184.784882 515.042725,197.518127 
z"/>
</svg>